<?xml version="1.0" encoding="UTF-8" standalone="no"?>
<svg
   height="195.10001mm"
   width="305.10001mm"
   viewBox="0 0 3051.0001 1951.0001"
   version="1.2"
   id="svg189"
   sodipodi:docname="bottom.svg"
   inkscape:version="1.3.2 (091e20ef0f, 2023-11-25)"
   xmlns:inkscape="http://www.inkscape.org/namespaces/inkscape"
   xmlns:sodipodi="http://sodipodi.sourceforge.net/DTD/sodipodi-0.dtd"
   xmlns="http://www.w3.org/2000/svg"
   xmlns:svg="http://www.w3.org/2000/svg">
  <sodipodi:namedview
     id="namedview189"
     pagecolor="#ffffff"
     bordercolor="#666666"
     borderopacity="1.0"
     inkscape:showpageshadow="2"
     inkscape:pageopacity="0.0"
     inkscape:pagecheckerboard="0"
     inkscape:deskcolor="#d1d1d1"
     inkscape:document-units="mm"
     inkscape:zoom="0.36613442"
     inkscape:cx="465.67597"
     inkscape:cy="716.9498"
     inkscape:window-width="1600"
     inkscape:window-height="831"
     inkscape:window-x="0"
     inkscape:window-y="32"
     inkscape:window-maximized="1"
     inkscape:current-layer="Page" />
  <title
     id="title1">FreeCAD SVG Export</title>
  <desc
     id="desc1">Drawing page: Page exported from FreeCAD document: CaseInlay</desc>
  <defs
     id="defs1" />
  <g
     id="Page"
     inkscape:label="TechDraw"
     inkscape:groupmode="layer"
     transform="translate(-4419.5,-3229.5)">
    <path
       vector-effect="non-scaling-stroke"
       fill-rule="evenodd"
       d="m 7285,4755 c 0,22.091 -17.91,40 -40,40 -22.09,0 -40,-17.909 -40,-40 0,-22.091 17.91,-40 40,-40 22.09,0 40,17.909 40,40"
       id="path62"
       style="font-style:normal;font-weight:400;font-size:38.8056px;font-family:Cantarell;fill:none;fill-opacity:1;stroke:#ff0000;stroke-width:1;stroke-linecap:square;stroke-linejoin:bevel;stroke-opacity:1"
       transform="translate(4.0451949e-5,8.7092239e-5)" />
    <path
       vector-effect="non-scaling-stroke"
       fill-rule="evenodd"
       d="m 7335,3955 c 0,22.091 -17.91,40 -40,40 -22.09,0 -40,-17.909 -40,-40 0,-22.091 17.91,-40 40,-40 22.09,0 40,17.909 40,40"
       id="path58"
       style="font-style:normal;font-weight:400;font-size:38.8056px;font-family:Cantarell;fill:none;fill-opacity:1;stroke:#ff0000;stroke-width:1;stroke-linecap:square;stroke-linejoin:bevel;stroke-opacity:1" />
    <path
       vector-effect="non-scaling-stroke"
       fill-rule="evenodd"
       d="m 7335,3405 c 0,22.091 -17.91,40 -40,40 -22.09,0 -40,-17.909 -40,-40 0,-22.091 17.91,-40 40,-40 22.09,0 40,17.909 40,40"
       id="path66"
       style="font-style:normal;font-weight:400;font-size:38.8056px;font-family:Cantarell;fill:none;fill-opacity:1;stroke:#ff0000;stroke-width:1;stroke-linecap:square;stroke-linejoin:bevel;stroke-opacity:1"
       transform="translate(4.0451949e-5,8.7092239e-5)" />
    <path
       vector-effect="non-scaling-stroke"
       fill-rule="evenodd"
       d="m 5985,3405 c 0,22.091 -17.9086,40 -40,40 -22.0914,0 -40,-17.909 -40,-40 0,-22.091 17.9086,-40 40,-40 22.0914,0 40,17.909 40,40"
       id="path64"
       style="font-style:normal;font-weight:400;font-size:38.8056px;font-family:Cantarell;fill:none;fill-opacity:1;stroke:#ff0000;stroke-width:1;stroke-linecap:square;stroke-linejoin:bevel;stroke-opacity:1" />
    <path
       vector-effect="non-scaling-stroke"
       fill-rule="evenodd"
       d="m 5985,4005 c 0,22.091 -17.9086,40 -40,40 -22.0914,0 -40,-17.909 -40,-40 0,-22.091 17.9086,-40 40,-40 22.0914,0 40,17.909 40,40"
       id="path63"
       style="font-style:normal;font-weight:400;font-size:38.8056px;font-family:Cantarell;fill:none;fill-opacity:1;stroke:#ff0000;stroke-width:1;stroke-linecap:square;stroke-linejoin:bevel;stroke-opacity:1"
       transform="translate(4.0451949e-5,8.7092239e-5)" />
    <path
       vector-effect="non-scaling-stroke"
       fill-rule="evenodd"
       d="m 5985,4405 c 0,22.091 -17.9086,40 -40,40 -22.0914,0 -40,-17.909 -40,-40 0,-22.091 17.9086,-40 40,-40 22.0914,0 40,17.909 40,40"
       id="path65"
       style="font-style:normal;font-weight:400;font-size:38.8056px;font-family:Cantarell;fill:none;fill-opacity:1;stroke:#ff0000;stroke-width:1;stroke-linecap:square;stroke-linejoin:bevel;stroke-opacity:1" />
    <path
       vector-effect="non-scaling-stroke"
       fill-rule="evenodd"
       d="m 5985,5055 c 0,22.091 -17.9086,40 -40,40 -22.0914,0 -40,-17.909 -40,-40 0,-22.091 17.9086,-40 40,-40 22.0914,0 40,17.909 40,40"
       id="path61"
       style="font-style:normal;font-weight:400;font-size:38.8056px;font-family:Cantarell;fill:none;fill-opacity:1;stroke:#ff0000;stroke-width:1;stroke-linecap:square;stroke-linejoin:bevel;stroke-opacity:1"
       transform="translate(4.0451949e-5,8.7092239e-5)" />
    <path
       vector-effect="non-scaling-stroke"
       fill-rule="evenodd"
       d="m 4685,4755 c 0,22.091 -17.91,40 -40,40 -22.09,0 -40,-17.909 -40,-40 0,-22.091 17.91,-40 40,-40 22.09,0 40,17.909 40,40"
       id="path59"
       style="font-style:normal;font-weight:400;font-size:38.8056px;font-family:Cantarell;fill:none;fill-opacity:1;stroke:#ff0000;stroke-width:1;stroke-linecap:square;stroke-linejoin:bevel;stroke-opacity:1"
       transform="translate(4.0451949e-5,8.7092239e-5)" />
    <path
       vector-effect="non-scaling-stroke"
       fill-rule="evenodd"
       d="m 4635,3955 c 0,22.091 -17.91,40 -40,40 -22.09,0 -40,-17.909 -40,-40 0,-22.091 17.91,-40 40,-40 22.09,0 40,17.909 40,40"
       id="path60"
       style="font-style:normal;font-weight:400;font-size:38.8056px;font-family:Cantarell;fill:none;fill-opacity:1;stroke:#ff0000;stroke-width:1;stroke-linecap:square;stroke-linejoin:bevel;stroke-opacity:1"
       transform="translate(4.0451949e-5,8.7092239e-5)" />
    <path
       vector-effect="non-scaling-stroke"
       fill-rule="evenodd"
       d="m 4635,3405 c 0,22.091 -17.91,40 -40,40 -22.09,0 -40,-17.909 -40,-40 0,-22.091 17.91,-40 40,-40 22.09,0 40,17.909 40,40"
       id="path67"
       style="font-style:normal;font-weight:400;font-size:38.8056px;font-family:Cantarell;fill:none;fill-opacity:1;stroke:#ff0000;stroke-width:1;stroke-linecap:square;stroke-linejoin:bevel;stroke-opacity:1" />
    <path
       vector-effect="non-scaling-stroke"
       fill-rule="evenodd"
       d="m 6155.868,3524.378 h 515.055 v -67.991 h 467.047 l 203.22,118.804 -181.07,311.113 v 171.205 c 88.36,0 160,71.6343 160,159.9998 0,88.3652 -71.64,160.0002 -160,160.0002 v 120.684 H 7037.9 c -13.81,0 -25,11.193 -25,25 V 4969.6 l -783.942,-0.011 0.41,0.011 -0.819,-0.022 v 0 c -2.777,-0.142 -5.482,-1.059 -7.86,-2.479 -1.772,-1.075 -3.383,-2.354 -4.834,-3.835 -2.222,-2.24 -4.101,-4.797 -5.779,-7.465 -2.103,-3.419 -3.961,-6.967 -5.575,-10.647 -4.584,-10.352 -7.927,-21.208 -10.879,-32.13 -6.414,-24.198 -10.747,-48.898 -14.436,-73.648 -3.707,-25.214 -6.585,-50.545 -9.008,-75.915 -3.16,-33.226 -5.518,-66.525 -7.395,-99.847 -2.654,-47.357 -4.325,-94.764 -5.395,-142.183 -1.032,-47.421 -1.539,-94.848 -1.52,-142.282 v 0 -1.638 c -88.366,0 -160.0004,-71.635 -160.0004,-160.0002 0,-88.3655 71.6344,-159.9998 160.0004,-159.9998 v -283.131 h -60 c -55.2289,0 -100.0004,-44.772 -100.0004,-100 v -150 h 160.0004"
       id="path57"
       style="font-style:normal;font-weight:400;font-size:38.8056px;font-family:Cantarell;fill:none;fill-opacity:1;stroke:#ff0000;stroke-width:1;stroke-linecap:square;stroke-linejoin:bevel;stroke-opacity:1"
       transform="translate(4.0451949e-5,8.7092239e-5)" />
    <path
       vector-effect="non-scaling-stroke"
       fill-rule="evenodd"
       d="m 5734.132,3524.378 h 160.0004 v 150 0 c 0,55.228 -44.7715,100 -100.0004,100 h -60 v 283.131 c 88.366,0 160.0004,71.6343 160.0004,159.9998 0,88.3652 -71.6344,160.0002 -160.0004,160.0002 v 1.638 0 c 0.019,47.434 -0.488,94.861 -1.52,142.282 -1.07,47.419 -2.741,94.826 -5.395,142.183 -1.877,33.322 -4.235,66.621 -7.395,99.847 -2.423,25.37 -5.301,50.701 -9.008,75.915 -3.689,24.75 -8.022,49.45 -14.436,73.648 -2.952,10.922 -6.295,21.778 -10.879,32.13 -1.614,3.68 -3.472,7.228 -5.575,10.647 -1.678,2.668 -3.557,5.225 -5.779,7.465 -1.451,1.481 -3.062,2.76 -4.834,3.835 -2.378,1.42 -5.083,2.337 -7.86,2.479 v 0 l -0.819,0.022 0.41,-0.011 -783.942,0.011 v -446.407 c 0,-13.807 -11.19,-25 -25,-25 h -122.22 v -120.684 c -88.36,0 -160,-71.635 -160,-160.0002 0,-88.3655 71.64,-159.9998 160,-159.9998 v -171.205 l -181.07,-311.113 203.22,-118.804 h 467.047 v 67.991 h 515.055"
       id="path56"
       style="font-style:normal;font-weight:400;font-size:38.8056px;font-family:Cantarell;fill:none;fill-opacity:1;stroke:#ff0000;stroke-width:1;stroke-linecap:square;stroke-linejoin:bevel;stroke-opacity:1"
       transform="translate(4.0451949e-5,8.7092239e-5)" />
    <path
       vector-effect="non-scaling-stroke"
       fill-rule="evenodd"
       d="m 7470,3480 v 1450 c 0,138.071 -111.93,250 -250,250 H 4670 c -138.07,0 -250,-111.929 -250,-250 V 3480 c 0,-138.071 111.93,-250 250,-250 h 2550 c 138.07,0 250,111.929 250,250"
       id="path55"
       style="font-style:normal;font-weight:400;font-size:38.8056px;font-family:Cantarell;fill:none;fill-opacity:1;stroke:#ff0000;stroke-width:1;stroke-linecap:square;stroke-linejoin:bevel;stroke-opacity:1"
       transform="translate(4.0451949e-5,8.7092239e-5)" />
  </g>
</svg>
