<?xml version="1.0" encoding="UTF-8" standalone="no"?>
<svg
   height="195.10001mm"
   width="305.10001mm"
   viewBox="0 0 3051.0001 1951.0001"
   version="1.2"
   id="svg189"
   sodipodi:docname="top.svg"
   inkscape:version="1.3.2 (091e20ef0f, 2023-11-25)"
   xmlns:inkscape="http://www.inkscape.org/namespaces/inkscape"
   xmlns:sodipodi="http://sodipodi.sourceforge.net/DTD/sodipodi-0.dtd"
   xmlns="http://www.w3.org/2000/svg"
   xmlns:svg="http://www.w3.org/2000/svg"
   xmlns:rdf="http://www.w3.org/1999/02/22-rdf-syntax-ns#"
   xmlns:cc="http://creativecommons.org/ns#"
   xmlns:dc="http://purl.org/dc/elements/1.1/">
  <sodipodi:namedview
     id="namedview189"
     pagecolor="#ffffff"
     bordercolor="#666666"
     borderopacity="1.0"
     inkscape:showpageshadow="2"
     inkscape:pageopacity="0.0"
     inkscape:pagecheckerboard="0"
     inkscape:deskcolor="#d1d1d1"
     inkscape:document-units="mm"
     inkscape:zoom="0.27403281"
     inkscape:cx="237.19787"
     inkscape:cy="538.25671"
     inkscape:window-width="1600"
     inkscape:window-height="831"
     inkscape:window-x="0"
     inkscape:window-y="32"
     inkscape:window-maximized="1"
     inkscape:current-layer="Page" />
  <title
     id="title1">FreeCAD SVG Export</title>
  <desc
     id="desc1">Drawing page: Page exported from FreeCAD document: CaseInlay</desc>
  <defs
     id="defs1" />
  <g
     id="Page"
     inkscape:label="TechDraw"
     inkscape:groupmode="layer"
     transform="translate(-8274.5,-3229.5)">
    <path
       vector-effect="non-scaling-stroke"
       fill-rule="evenodd"
       d="m 11190,3955 c 0,22.091 -17.91,40 -40,40 -22.09,0 -40,-17.909 -40,-40 0,-22.091 17.91,-40 40,-40 22.09,0 40,17.909 40,40"
       id="path132"
       style="font-style:normal;font-weight:400;font-size:38.8056px;font-family:Cantarell;display:inline;fill:none;fill-opacity:1;stroke:#ff0000;stroke-width:1;stroke-linecap:square;stroke-linejoin:bevel;stroke-opacity:1" />
    <path
       vector-effect="non-scaling-stroke"
       fill-rule="evenodd"
       d="m 11140,4755 c 0,22.091 -17.91,40 -40,40 -22.09,0 -40,-17.909 -40,-40 0,-22.091 17.91,-40 40,-40 22.09,0 40,17.909 40,40"
       id="path136"
       style="font-style:normal;font-weight:400;font-size:38.8056px;font-family:Cantarell;display:inline;fill:none;fill-opacity:1;stroke:#ff0000;stroke-width:1;stroke-linecap:square;stroke-linejoin:bevel;stroke-opacity:1" />
    <path
       vector-effect="non-scaling-stroke"
       fill-rule="evenodd"
       d="m 9840,5055 c 0,22.091 -17.9086,40 -40,40 -22.0914,0 -40,-17.909 -40,-40 0,-22.091 17.9086,-40 40,-40 22.0914,0 40,17.909 40,40"
       id="path135"
       style="font-style:normal;font-weight:400;font-size:38.8056px;font-family:Cantarell;display:inline;fill:none;fill-opacity:1;stroke:#ff0000;stroke-width:1;stroke-linecap:square;stroke-linejoin:bevel;stroke-opacity:1" />
    <path
       vector-effect="non-scaling-stroke"
       fill-rule="evenodd"
       d="m 8540,4755 c 0,22.091 -17.91,40 -40,40 -22.09,0 -40,-17.909 -40,-40 0,-22.091 17.91,-40 40,-40 22.09,0 40,17.909 40,40"
       id="path133"
       style="font-style:normal;font-weight:400;font-size:38.8056px;font-family:Cantarell;display:inline;fill:none;fill-opacity:1;stroke:#ff0000;stroke-width:1;stroke-linecap:square;stroke-linejoin:bevel;stroke-opacity:1" />
    <path
       vector-effect="non-scaling-stroke"
       fill-rule="evenodd"
       d="m 8490,3955 c 0,22.091 -17.91,40 -40,40 -22.09,0 -40,-17.909 -40,-40 0,-22.091 17.91,-40 40,-40 22.09,0 40,17.909 40,40"
       id="path134"
       style="font-style:normal;font-weight:400;font-size:38.8056px;font-family:Cantarell;display:inline;fill:none;fill-opacity:1;stroke:#ff0000;stroke-width:1;stroke-linecap:square;stroke-linejoin:bevel;stroke-opacity:1" />
    <path
       vector-effect="non-scaling-stroke"
       fill-rule="evenodd"
       d="m 8490,3405 c 0,22.091 -17.91,40 -40,40 -22.09,0 -40,-17.909 -40,-40 0,-22.091 17.91,-40 40,-40 22.09,0 40,17.909 40,40"
       id="path139"
       style="font-style:normal;font-weight:400;font-size:38.8056px;font-family:Cantarell;display:inline;fill:none;fill-opacity:1;stroke:#ff0000;stroke-width:1;stroke-linecap:square;stroke-linejoin:bevel;stroke-opacity:1" />
    <path
       vector-effect="non-scaling-stroke"
       fill-rule="evenodd"
       d="m 9840,3405 c 0,22.091 -17.9086,40 -40,40 -22.0914,0 -40,-17.909 -40,-40 0,-22.091 17.9086,-40 40,-40 22.0914,0 40,17.909 40,40"
       id="path137"
       style="font-style:normal;font-weight:400;font-size:38.8056px;font-family:Cantarell;display:inline;fill:none;fill-opacity:1;stroke:#ff0000;stroke-width:1;stroke-linecap:square;stroke-linejoin:bevel;stroke-opacity:1" />
    <path
       vector-effect="non-scaling-stroke"
       fill-rule="evenodd"
       d="m 11190,3405 c 0,22.091 -17.91,40 -40,40 -22.09,0 -40,-17.909 -40,-40 0,-22.091 17.91,-40 40,-40 22.09,0 40,17.909 40,40"
       id="path138"
       style="font-style:normal;font-weight:400;font-size:38.8056px;font-family:Cantarell;display:inline;fill:none;fill-opacity:1;stroke:#ff0000;stroke-width:1;stroke-linecap:square;stroke-linejoin:bevel;stroke-opacity:1" />
    <path
       vector-effect="non-scaling-stroke"
       fill-rule="evenodd"
       d="m 10010.868,3524.378 h 73.5 441.555 v -67.991 h 467.047 l 203.22,118.804 -181.07,311.113 v 171.205 c 88.36,0 160,71.6343 160,159.9998 0,88.3652 -71.64,160.0002 -160,160.0002 v 120.684 h -122.22 c -13.81,0 -25,11.193 -25,25 V 4969.6 H 10084.368 9515.632 8732.1 v -446.407 c 0,-13.807 -11.19,-25 -25,-25 h -122.22 v -120.684 c -88.36,0 -160,-71.635 -160,-160.0002 0,-88.3655 71.64,-159.9998 160,-159.9998 v -171.205 l -181.07,-311.113 203.22,-118.804 h 467.047 v 67.991 h 441.555 73.5 160.0004 101.7352 160.0004"
       id="path131"
       style="font-style:normal;font-weight:400;font-size:38.8056px;font-family:Cantarell;fill:none;fill-opacity:1;stroke:#ff0000;stroke-width:1;stroke-linecap:square;stroke-linejoin:bevel;stroke-opacity:1" />
    <path
       vector-effect="non-scaling-stroke"
       fill-rule="evenodd"
       d="m 11325,3480 v 1450 c 0,138.071 -111.93,250 -250,250 H 8525 c -138.07,0 -250,-111.929 -250,-250 V 3480 c 0,-138.071 111.93,-250 250,-250 h 2550 c 138.07,0 250,111.929 250,250"
       id="path130"
       style="font-style:normal;font-weight:400;font-size:38.8056px;font-family:Cantarell;fill:none;fill-opacity:1;stroke:#ff0000;stroke-width:1;stroke-linecap:square;stroke-linejoin:bevel;stroke-opacity:1" />
  </g>
  <metadata
     id="metadata189">
    <rdf:RDF>
      <cc:Work
         rdf:about="">
        <dc:title>FreeCAD SVG Export</dc:title>
      </cc:Work>
    </rdf:RDF>
  </metadata>
</svg>
